<mxfile host="app.diagrams.net" modified="2021-07-29T17:18:21.028Z" agent="5.0 (X11; Linux x86_64) AppleWebKit/537.36 (KHTML, like Gecko) Chrome/91.0.4472.114 Safari/537.36" etag="tK5j35NLcnp-KR2t5dTK" version="14.9.2" type="github">
  <diagram id="ItWMAnWrzcbNppVl749a" name="Page-1">
    <mxGraphModel dx="454" dy="760" grid="1" gridSize="10" guides="1" tooltips="1" connect="1" arrows="1" fold="1" page="1" pageScale="1" pageWidth="827" pageHeight="1169" background="#ffffff" math="0" shadow="0">
      <root>
        <mxCell id="0" />
        <mxCell id="1" parent="0" />
        <mxCell id="s8febx90gx5FP8TCXA3v-1" value="" style="rounded=0;whiteSpace=wrap;html=1;fillColor=#7EA6E0;" vertex="1" parent="1">
          <mxGeometry x="100" y="357.5" width="260" height="10" as="geometry" />
        </mxCell>
        <mxCell id="s8febx90gx5FP8TCXA3v-2" value="" style="rounded=0;whiteSpace=wrap;html=1;fillColor=#FFCE9F;" vertex="1" parent="1">
          <mxGeometry x="120" y="367.5" width="240" height="10" as="geometry" />
        </mxCell>
        <mxCell id="s8febx90gx5FP8TCXA3v-3" value="" style="rounded=0;whiteSpace=wrap;html=1;fillColor=#7EA6E0;" vertex="1" parent="1">
          <mxGeometry x="110" y="397.5" width="250" height="10" as="geometry" />
        </mxCell>
        <mxCell id="s8febx90gx5FP8TCXA3v-4" value="" style="rounded=0;whiteSpace=wrap;html=1;fillColor=#FFCE9F;" vertex="1" parent="1">
          <mxGeometry x="140" y="407.5" width="220" height="10" as="geometry" />
        </mxCell>
        <mxCell id="s8febx90gx5FP8TCXA3v-5" value="" style="rounded=0;whiteSpace=wrap;html=1;fillColor=#7EA6E0;" vertex="1" parent="1">
          <mxGeometry x="180" y="437.5" width="180" height="10" as="geometry" />
        </mxCell>
        <mxCell id="s8febx90gx5FP8TCXA3v-6" value="" style="rounded=0;whiteSpace=wrap;html=1;fillColor=#FFCE9F;" vertex="1" parent="1">
          <mxGeometry x="190" y="447.5" width="170" height="10" as="geometry" />
        </mxCell>
        <mxCell id="s8febx90gx5FP8TCXA3v-7" value="" style="rounded=0;whiteSpace=wrap;html=1;fillColor=#7EA6E0;" vertex="1" parent="1">
          <mxGeometry x="270" y="477.5" width="90" height="10" as="geometry" />
        </mxCell>
        <mxCell id="s8febx90gx5FP8TCXA3v-8" value="" style="rounded=0;whiteSpace=wrap;html=1;fillColor=#FFCE9F;" vertex="1" parent="1">
          <mxGeometry x="250" y="487.5" width="110" height="10" as="geometry" />
        </mxCell>
        <mxCell id="s8febx90gx5FP8TCXA3v-9" value="" style="rounded=0;whiteSpace=wrap;html=1;fillColor=#007FFF;" vertex="1" parent="1">
          <mxGeometry x="370" y="357.5" width="180" height="10" as="geometry" />
        </mxCell>
        <mxCell id="s8febx90gx5FP8TCXA3v-10" value="" style="rounded=0;whiteSpace=wrap;html=1;fillColor=#FFB570;" vertex="1" parent="1">
          <mxGeometry x="370" y="367.5" width="400" height="10" as="geometry" />
        </mxCell>
        <mxCell id="s8febx90gx5FP8TCXA3v-13" value="" style="rounded=0;whiteSpace=wrap;html=1;fillColor=#007FFF;" vertex="1" parent="1">
          <mxGeometry x="370" y="397.5" width="170" height="10" as="geometry" />
        </mxCell>
        <mxCell id="s8febx90gx5FP8TCXA3v-14" value="" style="rounded=0;whiteSpace=wrap;html=1;fillColor=#FFB570;" vertex="1" parent="1">
          <mxGeometry x="370" y="407.5" width="390" height="10" as="geometry" />
        </mxCell>
        <mxCell id="s8febx90gx5FP8TCXA3v-15" value="" style="rounded=0;whiteSpace=wrap;html=1;fillColor=#007FFF;" vertex="1" parent="1">
          <mxGeometry x="370" y="437.5" width="50" height="10" as="geometry" />
        </mxCell>
        <mxCell id="s8febx90gx5FP8TCXA3v-16" value="" style="rounded=0;whiteSpace=wrap;html=1;fillColor=#FFB570;" vertex="1" parent="1">
          <mxGeometry x="370" y="447.5" width="110" height="10" as="geometry" />
        </mxCell>
        <mxCell id="s8febx90gx5FP8TCXA3v-17" value="" style="rounded=0;whiteSpace=wrap;html=1;fillColor=#007FFF;" vertex="1" parent="1">
          <mxGeometry x="370" y="477.5" width="40" height="10" as="geometry" />
        </mxCell>
        <mxCell id="s8febx90gx5FP8TCXA3v-18" value="" style="rounded=0;whiteSpace=wrap;html=1;fillColor=#FFB570;" vertex="1" parent="1">
          <mxGeometry x="370" y="487.5" width="90" height="10" as="geometry" />
        </mxCell>
        <mxCell id="s8febx90gx5FP8TCXA3v-19" value="31-35 岁" style="text;html=1;strokeColor=none;fillColor=none;align=center;verticalAlign=middle;whiteSpace=wrap;rounded=0;fontStyle=1" vertex="1" parent="1">
          <mxGeometry y="357.5" width="60" height="15" as="geometry" />
        </mxCell>
        <mxCell id="s8febx90gx5FP8TCXA3v-20" value="26-30 岁" style="text;html=1;strokeColor=none;fillColor=none;align=center;verticalAlign=middle;whiteSpace=wrap;rounded=0;fontStyle=1" vertex="1" parent="1">
          <mxGeometry y="397.5" width="60" height="15" as="geometry" />
        </mxCell>
        <mxCell id="s8febx90gx5FP8TCXA3v-21" value="23-25 岁" style="text;html=1;strokeColor=none;fillColor=none;align=center;verticalAlign=middle;whiteSpace=wrap;rounded=0;fontStyle=1" vertex="1" parent="1">
          <mxGeometry y="437.5" width="60" height="15" as="geometry" />
        </mxCell>
        <mxCell id="s8febx90gx5FP8TCXA3v-22" value="18-22 岁" style="text;html=1;strokeColor=none;fillColor=none;align=center;verticalAlign=middle;whiteSpace=wrap;rounded=0;fontStyle=1" vertex="1" parent="1">
          <mxGeometry y="477.5" width="60" height="15" as="geometry" />
        </mxCell>
        <mxCell id="s8febx90gx5FP8TCXA3v-23" value="女性客单价" style="text;html=1;strokeColor=none;fillColor=none;align=center;verticalAlign=middle;whiteSpace=wrap;rounded=0;fontStyle=1" vertex="1" parent="1">
          <mxGeometry x="170" y="330" width="75" height="10" as="geometry" />
        </mxCell>
        <mxCell id="s8febx90gx5FP8TCXA3v-24" value="" style="rounded=0;whiteSpace=wrap;html=1;fillColor=#FFCE9F;" vertex="1" parent="1">
          <mxGeometry x="160" y="330" width="10" height="10" as="geometry" />
        </mxCell>
        <mxCell id="s8febx90gx5FP8TCXA3v-25" value="男性客单价" style="text;html=1;strokeColor=none;fillColor=none;align=center;verticalAlign=middle;whiteSpace=wrap;rounded=0;fontStyle=1" vertex="1" parent="1">
          <mxGeometry x="265" y="330" width="75" height="10" as="geometry" />
        </mxCell>
        <mxCell id="s8febx90gx5FP8TCXA3v-26" value="" style="rounded=0;whiteSpace=wrap;html=1;fillColor=#7EA6E0;" vertex="1" parent="1">
          <mxGeometry x="255" y="330" width="10" height="10" as="geometry" />
        </mxCell>
        <mxCell id="s8febx90gx5FP8TCXA3v-27" value="女性交易总额" style="text;html=1;strokeColor=none;fillColor=none;align=center;verticalAlign=middle;whiteSpace=wrap;rounded=0;fontStyle=1" vertex="1" parent="1">
          <mxGeometry x="406" y="330" width="75" height="10" as="geometry" />
        </mxCell>
        <mxCell id="s8febx90gx5FP8TCXA3v-28" value="" style="rounded=0;whiteSpace=wrap;html=1;fillColor=#FFCE9F;" vertex="1" parent="1">
          <mxGeometry x="390" y="330" width="10" height="10" as="geometry" />
        </mxCell>
        <mxCell id="s8febx90gx5FP8TCXA3v-29" value="男性交易总额" style="text;html=1;strokeColor=none;fillColor=none;align=center;verticalAlign=middle;whiteSpace=wrap;rounded=0;fontStyle=1" vertex="1" parent="1">
          <mxGeometry x="510" y="330" width="75" height="10" as="geometry" />
        </mxCell>
        <mxCell id="s8febx90gx5FP8TCXA3v-30" value="" style="rounded=0;whiteSpace=wrap;html=1;fillColor=#7EA6E0;" vertex="1" parent="1">
          <mxGeometry x="495" y="330" width="10" height="10" as="geometry" />
        </mxCell>
        <mxCell id="s8febx90gx5FP8TCXA3v-32" value="&lt;span&gt;&lt;font style=&quot;font-size: 11px&quot;&gt;1257&lt;/font&gt;&lt;/span&gt;" style="text;html=1;strokeColor=none;fillColor=none;align=center;verticalAlign=middle;whiteSpace=wrap;rounded=0;fontStyle=2" vertex="1" parent="1">
          <mxGeometry x="60" y="352.5" width="40" height="20" as="geometry" />
        </mxCell>
        <mxCell id="s8febx90gx5FP8TCXA3v-33" value="&lt;span&gt;&lt;font style=&quot;font-size: 11px&quot;&gt;1174&lt;/font&gt;&lt;/span&gt;" style="text;html=1;strokeColor=none;fillColor=none;align=center;verticalAlign=middle;whiteSpace=wrap;rounded=0;fontStyle=2" vertex="1" parent="1">
          <mxGeometry x="80" y="362.5" width="40" height="20" as="geometry" />
        </mxCell>
        <mxCell id="s8febx90gx5FP8TCXA3v-36" value="&lt;span&gt;&lt;font style=&quot;font-size: 11px&quot;&gt;1206&lt;/font&gt;&lt;/span&gt;" style="text;html=1;strokeColor=none;fillColor=none;align=center;verticalAlign=middle;whiteSpace=wrap;rounded=0;fontStyle=2" vertex="1" parent="1">
          <mxGeometry x="70" y="392.5" width="40" height="20" as="geometry" />
        </mxCell>
        <mxCell id="s8febx90gx5FP8TCXA3v-37" value="&lt;span&gt;&lt;font style=&quot;font-size: 11px&quot;&gt;1101&lt;/font&gt;&lt;/span&gt;" style="text;html=1;strokeColor=none;fillColor=none;align=center;verticalAlign=middle;whiteSpace=wrap;rounded=0;fontStyle=2" vertex="1" parent="1">
          <mxGeometry x="100" y="402.5" width="40" height="20" as="geometry" />
        </mxCell>
        <mxCell id="s8febx90gx5FP8TCXA3v-38" value="&lt;span&gt;&lt;font style=&quot;font-size: 11px&quot;&gt;885&lt;/font&gt;&lt;/span&gt;" style="text;html=1;strokeColor=none;fillColor=none;align=center;verticalAlign=middle;whiteSpace=wrap;rounded=0;fontStyle=2" vertex="1" parent="1">
          <mxGeometry x="145" y="432.5" width="40" height="20" as="geometry" />
        </mxCell>
        <mxCell id="s8febx90gx5FP8TCXA3v-39" value="&lt;span&gt;&lt;font style=&quot;font-size: 11px&quot;&gt;855&lt;/font&gt;&lt;/span&gt;" style="text;html=1;strokeColor=none;fillColor=none;align=center;verticalAlign=middle;whiteSpace=wrap;rounded=0;fontStyle=2" vertex="1" parent="1">
          <mxGeometry x="150" y="442.5" width="40" height="20" as="geometry" />
        </mxCell>
        <mxCell id="s8febx90gx5FP8TCXA3v-40" value="&lt;span&gt;&lt;font style=&quot;font-size: 11px&quot;&gt;502&lt;/font&gt;&lt;/span&gt;" style="text;html=1;strokeColor=none;fillColor=none;align=center;verticalAlign=middle;whiteSpace=wrap;rounded=0;fontStyle=2" vertex="1" parent="1">
          <mxGeometry x="240" y="475" width="30" height="12.5" as="geometry" />
        </mxCell>
        <mxCell id="s8febx90gx5FP8TCXA3v-41" value="&lt;span&gt;&lt;font style=&quot;font-size: 11px&quot;&gt;614&lt;/font&gt;&lt;/span&gt;" style="text;html=1;strokeColor=none;fillColor=none;align=center;verticalAlign=middle;whiteSpace=wrap;rounded=0;fontStyle=2" vertex="1" parent="1">
          <mxGeometry x="215" y="482.5" width="40" height="20" as="geometry" />
        </mxCell>
        <mxCell id="s8febx90gx5FP8TCXA3v-43" value="&lt;span&gt;&lt;font style=&quot;font-size: 11px&quot;&gt;17.76&lt;/font&gt;&lt;/span&gt;" style="text;html=1;strokeColor=none;fillColor=none;align=center;verticalAlign=middle;whiteSpace=wrap;rounded=0;fontStyle=2" vertex="1" parent="1">
          <mxGeometry x="560" y="357.5" width="30" height="7.5" as="geometry" />
        </mxCell>
        <mxCell id="s8febx90gx5FP8TCXA3v-44" value="&lt;span&gt;&lt;font style=&quot;font-size: 11px&quot;&gt;30.97&lt;/font&gt;&lt;/span&gt;" style="text;html=1;strokeColor=none;fillColor=none;align=center;verticalAlign=middle;whiteSpace=wrap;rounded=0;fontStyle=2" vertex="1" parent="1">
          <mxGeometry x="780" y="368.75" width="30" height="7.5" as="geometry" />
        </mxCell>
        <mxCell id="s8febx90gx5FP8TCXA3v-45" value="&lt;span&gt;&lt;font style=&quot;font-size: 11px&quot;&gt;16.75&lt;/font&gt;&lt;/span&gt;" style="text;html=1;strokeColor=none;fillColor=none;align=center;verticalAlign=middle;whiteSpace=wrap;rounded=0;fontStyle=2" vertex="1" parent="1">
          <mxGeometry x="545" y="392.5" width="40" height="17.5" as="geometry" />
        </mxCell>
        <mxCell id="s8febx90gx5FP8TCXA3v-52" value="&lt;span&gt;&lt;font style=&quot;font-size: 11px&quot;&gt;29.47&lt;/font&gt;&lt;/span&gt;" style="text;html=1;strokeColor=none;fillColor=none;align=center;verticalAlign=middle;whiteSpace=wrap;rounded=0;fontStyle=2" vertex="1" parent="1">
          <mxGeometry x="770" y="410" width="30" height="7.5" as="geometry" />
        </mxCell>
        <mxCell id="s8febx90gx5FP8TCXA3v-59" value="&lt;span&gt;&lt;font style=&quot;font-size: 11px&quot;&gt;5.93&lt;/font&gt;&lt;/span&gt;" style="text;html=1;strokeColor=none;fillColor=none;align=center;verticalAlign=middle;whiteSpace=wrap;rounded=0;fontStyle=2" vertex="1" parent="1">
          <mxGeometry x="423.5" y="432.5" width="40" height="17.5" as="geometry" />
        </mxCell>
        <mxCell id="s8febx90gx5FP8TCXA3v-60" value="&lt;span&gt;&lt;font style=&quot;font-size: 11px&quot;&gt;10.75&lt;/font&gt;&lt;/span&gt;" style="text;html=1;strokeColor=none;fillColor=none;align=center;verticalAlign=middle;whiteSpace=wrap;rounded=0;fontStyle=2" vertex="1" parent="1">
          <mxGeometry x="480" y="442.5" width="40" height="17.5" as="geometry" />
        </mxCell>
        <mxCell id="s8febx90gx5FP8TCXA3v-61" value="&lt;span&gt;&lt;font style=&quot;font-size: 11px&quot;&gt;4.75&lt;/font&gt;&lt;/span&gt;" style="text;html=1;strokeColor=none;fillColor=none;align=center;verticalAlign=middle;whiteSpace=wrap;rounded=0;fontStyle=2" vertex="1" parent="1">
          <mxGeometry x="410" y="472.5" width="40" height="17.5" as="geometry" />
        </mxCell>
        <mxCell id="s8febx90gx5FP8TCXA3v-62" value="&lt;span&gt;&lt;font style=&quot;font-size: 11px&quot;&gt;8.27&lt;/font&gt;&lt;/span&gt;" style="text;html=1;strokeColor=none;fillColor=none;align=center;verticalAlign=middle;whiteSpace=wrap;rounded=0;fontStyle=2" vertex="1" parent="1">
          <mxGeometry x="465" y="482.5" width="40" height="17.5" as="geometry" />
        </mxCell>
        <mxCell id="s8febx90gx5FP8TCXA3v-63" value="客单价/元" style="text;html=1;strokeColor=none;fillColor=none;align=center;verticalAlign=middle;whiteSpace=wrap;rounded=0;fontStyle=1;fontColor=#666666;" vertex="1" parent="1">
          <mxGeometry x="55" y="510" width="70" height="20" as="geometry" />
        </mxCell>
        <mxCell id="s8febx90gx5FP8TCXA3v-64" value="交易额/亿元" style="text;html=1;strokeColor=none;fillColor=none;align=center;verticalAlign=middle;whiteSpace=wrap;rounded=0;fontStyle=1;fontColor=#666666;" vertex="1" parent="1">
          <mxGeometry x="740" y="510" width="70" height="20" as="geometry" />
        </mxCell>
      </root>
    </mxGraphModel>
  </diagram>
</mxfile>
